<svg width="35" height="35" viewBox="0 0 35 35" fill="none" xmlns="http://www.w3.org/2000/svg">
<path fill-rule="evenodd" clip-rule="evenodd" d="M10.2719 0.214776C7.4231 0.343314 4.95392 1.03981 2.96011 3.0252C0.959341 5.02102 0.271497 7.49998 0.14264 10.3191C0.0625387 12.0787 -0.40585 25.372 0.952378 28.8582C1.86831 31.2101 3.67227 33.0184 6.04569 33.9373C7.15316 34.3681 8.41739 34.6597 10.2719 34.7448C25.7783 35.4466 31.5264 35.0645 33.9503 28.8582C34.3804 27.7535 34.6764 26.4903 34.7583 24.6404C35.467 9.09424 34.6434 5.72451 31.9409 3.0252C29.7973 0.886946 27.2759 -0.568611 10.2719 0.214776ZM10.4147 31.6182C8.71687 31.5418 7.79572 31.2589 7.18104 31.0209C5.63475 30.4199 4.47329 29.2633 3.87602 27.726C2.84168 25.0771 3.18473 12.4959 3.27702 10.4601C3.36757 8.46605 3.77155 6.64359 5.17854 5.23663C6.91985 3.49961 9.16961 2.64832 24.488 3.33965C26.487 3.42997 28.3137 3.83313 29.7241 5.23663C31.4655 6.97362 32.3292 9.2407 31.6257 24.5003C31.549 26.1939 31.2652 27.1128 31.0267 27.726C29.4508 31.7645 25.8253 32.3252 10.4147 31.6182ZM24.6569 8.20684C24.6569 9.35675 25.592 10.2918 26.7465 10.2918C27.901 10.2918 28.8378 9.35675 28.8378 8.20684C28.8378 7.05695 27.901 6.12274 26.7465 6.12274C25.592 6.12274 24.6569 7.05695 24.6569 8.20684ZM8.50967 17.4789C8.50967 22.4051 12.513 26.399 17.4513 26.399C22.3897 26.399 26.393 22.4051 26.393 17.4789C26.393 12.5528 22.3897 8.56146 17.4513 8.56146C12.513 8.56146 8.50967 12.5528 8.50967 17.4789ZM11.6475 17.4789C11.6475 14.2829 14.2456 11.6898 17.4513 11.6898C20.6571 11.6898 23.2552 14.2829 23.2552 17.4789C23.2552 20.6768 20.6571 23.2707 17.4513 23.2707C14.2456 23.2707 11.6475 20.6768 11.6475 17.4789Z" fill="black"/>
</svg>
