<svg width="60" height="60" viewBox="0 0 60 60" fill="none" xmlns="http://www.w3.org/2000/svg">
<g clip-path="url(#clip0_185_18)">
<path d="M29.1024 55.5652C29.0331 55.5023 28.9958 55.4586 28.9777 55.4469L29.4604 54.9941L28.9735 55.4405C20.9488 47.4116 13.7936 40.4397 8.59905 34.5078C3.43753 28.5503 0.0746931 23.7692 0.0011702 19.377C-0.00214193 19.2665 0.000368068 19.1559 0.00864934 19.0457C0.0300414 14.9309 1.67876 10.9916 4.59479 8.0884C7.51081 5.18515 11.4572 3.55374 15.572 3.55042C18.5305 3.55232 21.427 4.3991 23.9205 5.99115C26.4141 7.5832 28.4012 9.85429 29.6479 12.5372L29.9943 13.2831L30.007 13.2629L30.3438 12.5341C31.5953 9.85241 33.5853 7.5831 36.0806 5.99216C38.5759 4.40122 41.4731 3.55459 44.4324 3.55149C48.5488 3.55146 52.4974 5.18286 55.4134 8.0884C58.3293 10.9939 59.9748 14.9367 59.9894 19.0531C59.9894 19.1692 59.9894 19.2811 59.9979 19.3845C59.918 23.7767 56.5552 28.5556 51.3947 34.5152C46.2076 40.4365 39.0706 47.3956 31.0566 55.4086C31.0362 55.4294 31.0169 55.4515 30.9991 55.4746L30.0955 56.4517L29.1003 55.5684L29.1024 55.5652ZM2.71831 19.1074V19.1809V19.2257C2.71831 19.2257 2.71831 19.2822 2.71831 19.3706C2.64265 22.2114 5.53453 26.9509 10.647 32.7187C15.5422 38.3129 22.351 44.9864 30.0091 52.6285C37.6811 44.9683 44.474 38.3065 49.3638 32.7219C54.4784 26.9562 57.3735 22.2178 57.2978 19.377C57.2978 19.2992 57.2978 19.2257 57.2893 19.1074C57.2882 15.6995 55.9342 12.4314 53.5248 10.0212C51.1155 7.61106 47.8478 6.25596 44.4399 6.2537C41.9956 6.25642 39.6027 6.95581 37.5417 8.26988C35.4807 9.58394 33.8369 11.4582 32.803 13.6731L32.4663 14.403L32.2713 14.8112L32.2287 14.8804C31.9927 15.2573 31.6651 15.5684 31.2764 15.7846C30.8878 16.0007 30.4507 16.1149 30.006 16.1164C29.5247 16.1117 29.0538 15.977 28.6428 15.7266C28.2318 15.4762 27.8962 15.1194 27.6714 14.6939C27.6234 14.6047 27.5803 14.5129 27.5424 14.419L27.1961 13.6731C26.1677 11.4585 24.5284 9.58369 22.4709 8.26897C20.4134 6.95425 18.0233 6.25436 15.5816 6.25159C12.1711 6.25074 8.8999 7.60466 6.4876 10.0156C4.07529 12.4265 2.71944 15.6969 2.71831 19.1074ZM30.072 13.46C30.072 13.46 30.072 13.4653 30.0571 13.4227L30.072 13.46Z" fill="#2C3233"/>
</g>
<defs>
<clipPath id="clip0_185_18">
<rect width="60" height="60" fill="white"/>
</clipPath>
</defs>
</svg>
