<svg width="35" height="35" viewBox="0 0 35 35" fill="none" xmlns="http://www.w3.org/2000/svg">
<path d="M24.196 10.9812C24.2025 10.9812 24.2113 10.9812 24.22 10.9812C24.4486 10.9812 24.6608 11.0523 24.8347 11.1748L24.8314 11.1727C24.9583 11.2831 25.0436 11.4384 25.0644 11.6134V11.6167C25.0863 11.7502 25.0983 11.9033 25.0983 12.0597C25.0983 12.1308 25.0961 12.2008 25.0906 12.2708V12.2609C24.8446 14.852 23.7771 21.1356 23.2346 24.0362C23.0049 25.2645 22.5531 25.6758 22.1156 25.7152C21.1652 25.8037 20.4433 25.0873 19.5224 24.4836C18.0808 23.5375 17.266 22.9491 15.8671 22.027C14.2494 20.9628 15.2983 20.3755 16.2192 19.4195C16.461 19.168 20.6511 15.3562 20.7331 15.0106C20.7375 14.9898 20.7397 14.9669 20.7397 14.9428C20.7397 14.8575 20.708 14.7798 20.6566 14.7208C20.5997 14.6836 20.5286 14.6628 20.4542 14.6628C20.405 14.6628 20.358 14.6727 20.3142 14.6891L20.3164 14.688C20.1721 14.7208 17.8693 16.2426 13.4083 19.2533C12.9216 19.6372 12.3069 19.88 11.6375 19.9084H11.631C10.6827 19.7936 9.8219 19.5825 9.00487 19.2817L9.08581 19.308C8.05987 18.9733 7.24502 18.7972 7.31502 18.2306C7.35221 17.936 7.75836 17.6345 8.53346 17.3261C13.308 15.2458 16.492 13.8746 18.0852 13.2125C19.8428 12.2795 21.8805 11.5117 24.0231 11.0141L24.1949 10.9802L24.196 10.9812ZM17.4235 1.12109C8.34315 1.14297 0.989868 8.50937 0.989868 17.593C0.989868 26.6897 8.36393 34.0648 17.4617 34.0648C26.5596 34.0648 33.9336 26.6908 33.9336 17.593C33.9336 8.50937 26.5803 1.14297 17.5022 1.12109H17.5C17.4745 1.12109 17.449 1.12109 17.4235 1.12109Z" fill="black"/>
</svg>
