<svg width="35" height="35" viewBox="0 0 35 35" fill="none" xmlns="http://www.w3.org/2000/svg">
<path d="M27.5811 24.5022H25.1978C24.2955 24.5022 24.0166 23.7847 22.3957 22.1419C20.9836 20.7747 20.3591 20.591 20.0124 20.591C19.5257 20.591 19.3867 20.7299 19.3867 21.4014V23.5539C19.3867 24.1336 19.2019 24.4803 17.6739 24.4803C14.5917 24.2736 11.9427 22.5925 10.4049 20.1425L10.3819 20.1042C8.5969 17.8872 7.28112 15.2152 6.63034 12.2927L6.60627 12.1647C6.60627 11.818 6.74518 11.4931 7.41674 11.4931H9.80002C10.4016 11.4931 10.6335 11.771 10.8664 12.4185C12.0455 15.8222 14.0142 18.8081 14.8247 18.8081C15.1255 18.8081 15.2644 18.6692 15.2644 17.9058V14.385C15.1714 12.7641 14.315 12.6263 14.315 12.0477C14.3249 11.7381 14.5786 11.491 14.8892 11.491C14.8991 11.491 14.9078 11.491 14.9177 11.4921H14.9166H18.6671C19.1767 11.4921 19.3616 11.7699 19.3616 12.3714V17.1183C19.3616 17.6269 19.5935 17.8128 19.7324 17.8128C20.0332 17.8128 20.2891 17.6269 20.8436 17.0724C21.9964 15.6647 22.9819 14.0547 23.7333 12.3189L23.7836 12.1877C23.9422 11.7906 24.3228 11.515 24.768 11.515C24.7888 11.515 24.8085 11.5161 24.8292 11.5172H24.826H27.2092C27.9267 11.5172 28.0897 11.8858 27.9267 12.3966C26.9708 14.5021 25.8967 16.3111 24.6521 17.9867L24.7089 17.9058C24.4552 18.3225 24.3622 18.5074 24.7089 18.9722C24.9627 19.3189 25.7972 20.0364 26.3528 20.685C27.1567 21.4802 27.8305 22.4055 28.3391 23.4271L28.3664 23.4872C28.5983 24.1566 28.2505 24.5044 27.5789 24.5044L27.5811 24.5022ZM22.5357 1.09814H12.4655C3.27471 1.09814 1.09924 3.27361 1.09924 12.4644V22.5346C1.09924 31.7253 3.27471 33.9008 12.4655 33.9008H22.5357C31.7264 33.9008 33.9019 31.7253 33.9019 22.5346V12.4644C33.9019 3.27361 31.7024 1.09814 22.5357 1.09814Z" fill="black"/>
</svg>
